Why Did I Get Married Too (2010) 1080p       


Verenigde Staten
Komedie
121 minuten

geregisseerd door Tyler Perry
met Tyler Perry, Janet Jackson en Jill Scott

Tijdens hun jaarlijkse reünie/vakantie op de Bahamas wisselen vier koppels hun huwelijksverhalen uit. Hun idyllische week wordt echter verstoord door Mike (Jones), Sheila?s ex-man, die erop hoopt haar relatie met Troy (Rucker) te verbreken en haar terug te winnen. Ook de andere koppels zullen er gauw achterkomen dat ze niet bestand zijn tegen de obstakels van het huwelijk.

English:

Four couples reunite for their annual vacation in order to socialize and to spend time analyzing their marriages. 
Their intimate week in the Bahamas is disrupted by the arrival of an ex-husband determined to win back his recently remarried wife.






Dvd Info:


Release name.......: why.did.i.get.married.too.2010.1080p.bluray.x264-cinefile

Source.............: BlueRay

Resolution.........: 1920 x 1080 (WS)

Video bitrate......: 8618 Kbps avg
Framerate..........: 23.97 fps 

Audio..............: Engels AC35.1 @ 640 Kbps | DTS 1510 Kbps

Subtitles..........: Nederlands Cust. en Engels instelbaar

FRT Subbers........: Petjuh, Edwin Knight, Shannara, ThePooh, Dejavu en Poppetje1969 Wat een monsterklus weer, super team bedankt!

Controle...........: Poppetje1969

Bewerking..........: Dejavu


Thanks : Fast_Release  

Format                           : Matroska
File size                        : 9.29 GiB
Duration                         : 2h 0mn
Overall bit rate                 : 11.0 Mbps
Encoded date                     : UTC 2010-08-26 11:16:37
Writing application              : mkvmerge v3.1.0 ('Happy up here') built on Jan 19 2010 12:09:24
Writing library                  : libebml v0.7.9 + libmatroska v0.8.1

Video
ID                               : 1
Format                           : AVC
Format/Info                      : Advanced Video Codec
Format profile                   : High@L4.0
Format settings, CABAC           : Yes
Format settings, ReFrames        : 4 frames
Muxing mode                      : Container profile=Unknown@4.0
Codec ID                         : V_MPEG4/ISO/AVC
Duration                         : 2h 0mn
Bit rate                         : 8 619 Kbps
Nominal bit rate                 : 8 838 Kbps
Width                            : 1 920 pixels
Height                           : 1 080 pixels
Display aspect ratio             : 16/9
Frame rate                       : 23.976 fps
Resolution                       : 24 bits
Colorimetry                      : 4:2:0
Scan type                        : Progressive
Bits/(Pixel*Frame)               : 0.173
Stream size                      : 7.28 GiB (78%)
Writing library                  : x264 core 104 r1698 c41b8f0
Encoding settings                : cabac=1 / ref=4 / deblock=1:0:0 / analyse=0x3:0x113 / me=umh / subme=7 / psy=1 / psy_rd=1.00:0.00 / mixed_ref=1 / me_range=16 / chroma_me=1 / trellis=1 / 8x8dct=1 / cqm=0 / deadzone=21,11 / fast_pskip=0 / chroma_qp_offset=-2 / threads=12 / sliced_threads=0 / nr=0 / decimate=1 / interlaced=0 / constrained_intra=0 / bframes=3 / b_pyramid=2 / b_adapt=1 / b_bias=0 / direct=1 / weightb=1 / open_gop=0 / weightp=2 / keyint=250 / keyint_min=23 / scenecut=40 / intra_refresh=0 / rc_lookahead=40 / rc=2pass / mbtree=1 / bitrate=8838 / ratetol=1.0 / qcomp=0.60 / qpmin=10 / qpmax=51 / qpstep=4 / cplxblur=20.0 / qblur=0.5 / ip_ratio=1.40 / aq=1:1.00
Language                         : English

Audio #1
ID                               : 2
Format                           : AC-3
Format/Info                      : Audio Coding 3
Codec ID                         : A_AC3
Duration                         : 2h 0mn
Bit rate mode                    : Constant
Bit rate                         : 640 Kbps
Channel(s)                       : 6 channels
Channel positions                : Front: L C R, Surround: L R, LFE
Sampling rate                    : 48.0 KHz
Stream size                      : 554 MiB (6%)

Audio #2
ID                               : 3
Format                           : DTS
Format/Info                      : Digital Theater Systems
Codec ID                         : A_DTS
Duration                         : 2h 0mn
Bit rate mode                    : Constant
Bit rate                         : 1 510 Kbps
Channel(s)                       : 6 channels
Channel positions                : Front: L C R, Surround: L R, LFE
Sampling rate                    : 48.0 KHz
Resolution                       : 24 bits
Stream size                      : 1.28 GiB (14%)

Text #1
ID                               : 4
Format                           : UTF-8
Codec ID                         : S_TEXT/UTF8
Codec ID/Info                    : UTF-8 Plain Text
Language                         : English

Text #2
ID                               : 5
Format                           : UTF-8
Codec ID                         : S_TEXT/UTF8
Codec ID/Info                    : UTF-8 Plain Text
Language                         : Dutch
 

Spotinformatie 
Categorie : Beeld 
Formaat : x264HD 
Bron : Retail
 

 
Genre : Komedie
 
 
http://www.moviemeter.nl/film/63106 
http://www.imdb.com/title/tt1391137 
	
******************************************

Brought to you by 
Pioen

2Lions Team

meer zien??
Kom dan eens kijken op ons forum 
                                          
http://www.2lions-site.nl


2Lions the site to be for all your Dutch MOVIES and more

******************************************


DON T HIT AND RUN Niet gelijk afhaken als de FILM binnen is blijf seeden. 

Don`t quit after you finished the download, but keep seeding


There are fake torrents from uploaders who use our team name.
Those are not ours, or members from our team.
We 2Lions-Team are not responsible for the fake posts on our name

Wij 2Lions-Team zijn niet verantwoordelijk voor die zieke FAKE posten die op onze naam worden gedaan


 
 
 
